# xmcd
#
# Track frame offsets:
#	150
#	2904
#	20223
#	37582
#	41098
#	68026
#	88215
#	91771
#	108548
#	145767
#	147853
#	165478
#	211493
#	216006
#
# Disc length: 3688 seconds
#
# Revision: 2
# Processed by: cddbd v1.5.2PL0 Copyright (c) Steve Scherf et al.
# Submitted via: CDmax 2.0
#
DISCID=be0e660e
DTITLE=The Original Blues Project - Reunion In Central Park
DYEAR=1973
DGENRE=Blues
TTITLE0=Introduction:Ron Delsener
TTITLE1=Louisiana Blues
TTITLE2=Steve's Song
TTITLE3=Introduction:Al And Andy
TTITLE4=I Can't Keep From Cryin' Sometimes
TTITLE5=You Can't Catc Me
TTITLE6=Introduction:Al
TTITLE7=Fly Away
TTITLE8=Caress Me Baby
TTITLE9=Introduction:Andy
TTITLE10=Catch The Wind
TTITLE11=(I Heard Her Say) Wake Me, Shake Me
TTITLE12=Introduction:Danny Kalb
TTITLE13=Two Train Running
EXTD=
EXTT0=
EXTT1=
EXTT2=
EXTT3=
EXTT4=
EXTT5=
EXTT6=
EXTT7=
EXTT8=
EXTT9=
EXTT10=
EXTT11=
EXTT12=
EXTT13=
PLAYORDER=
